<svg xmlns="http://www.w3.org/2000/svg" width="89.713" height="89.713" viewBox="0 0 89.713 89.713">
  <g id="_1_brand_icon" data-name="1_brand_icon" transform="translate(-366.941 -774.767)">
    <g id="Group_688" data-name="Group 688">
      <path id="Path_2168" data-name="Path 2168" d="M452,824.279l-2.828-2.828L451,819.623l-1.828-1.828L452,814.967l4.656,4.656Z" fill="#f8c200"/>
    </g>
    <g id="Group_689" data-name="Group 689">
      <path id="Path_2169" data-name="Path 2169" d="M420.008,856.27l-2.828-2.829,7.109-7.109,2.828,2.828Zm10.663-10.664-2.828-2.828,7.109-7.109,2.828,2.828Zm10.664-10.664-2.828-2.828,7.108-7.108,2.828,2.828Z" fill="#f8c200"/>
    </g>
    <g id="Group_690" data-name="Group 690">
      <path id="Path_2170" data-name="Path 2170" d="M411.8,864.479l-4.656-4.656L409.97,857l1.828,1.828L413.626,857l2.828,2.828Z" fill="#f8c200"/>
    </g>
    <g id="Group_691" data-name="Group 691">
      <path id="Path_2171" data-name="Path 2171" d="M403.587,856.269l-7.108-7.109,2.828-2.828,7.108,7.108ZM392.924,845.6l-7.11-7.109,2.829-2.828,7.109,7.109Zm-10.663-10.663-7.11-7.109,2.828-2.828,7.11,7.109Z" fill="#f8c200"/>
    </g>
    <g id="Group_692" data-name="Group 692">
      <path id="Path_2172" data-name="Path 2172" d="M371.6,824.279l-4.656-4.656,4.656-4.656,2.828,2.828-1.828,1.828,1.828,1.828Z" fill="#f8c200"/>
    </g>
    <g id="Group_693" data-name="Group 693">
      <path id="Path_2173" data-name="Path 2173" d="M377.98,814.24l-2.828-2.828,7.109-7.108,2.828,2.828Zm10.664-10.663-2.829-2.828,7.11-7.109,2.828,2.828Zm10.663-10.663-2.828-2.828,7.109-7.109,2.828,2.828Z" fill="#f8c200"/>
    </g>
    <g id="Group_694" data-name="Group 694">
      <path id="Path_2174" data-name="Path 2174" d="M413.626,782.251l-1.828-1.828-1.828,1.828-2.828-2.828,4.656-4.656,4.656,4.656Z" fill="#f8c200"/>
    </g>
    <g id="Group_695" data-name="Group 695">
      <path id="Path_2175" data-name="Path 2175" d="M445.616,814.241l-7.109-7.109,2.828-2.828,7.109,7.109Zm-10.663-10.663-7.109-7.109,2.828-2.828,7.109,7.109Zm-10.664-10.664-7.108-7.108,2.828-2.828,7.108,7.108Z" fill="#f8c200"/>
    </g>
  </g>
</svg>
