<svg xmlns="http://www.w3.org/2000/svg" width="24.502" height="40.089" viewBox="0 0 24.502 40.089">
  <g id="beeta_logo" data-name="beeta logo" transform="translate(3357 6347.082)">
    <path id="Trazado_1" data-name="Trazado 1" d="M7.152,14.067H31.009a.307.307,0,0,0,.3-.282c.02-.343.04-.706.04-1.069a12.4,12.4,0,0,0-.343-2.884.3.3,0,0,0-.3-.222H7.152a.31.31,0,0,0-.3.3v3.852a.31.31,0,0,0,.3.3" transform="translate(-3363.85 -6347.779)" fill="#f8c200"/>
    <path id="Trazado_2" data-name="Trazado 2" d="M7.152,22.9H30.707a.328.328,0,0,0,.3-.222,12.4,12.4,0,0,0,.343-2.884c0-.363-.02-.706-.04-1.069a.307.307,0,0,0-.3-.282H7.152a.31.31,0,0,0-.3.3v3.852a.3.3,0,0,0,.3.3" transform="translate(-3363.85 -6338.802)" fill="#f8c200"/>
    <path id="Trazado_3" data-name="Trazado 3" d="M28.015,9.647a.3.3,0,0,0,.222-.5,12.278,12.278,0,0,0-.887-.887A12.006,12.006,0,0,0,19.344,5.19H8.051a1.188,1.188,0,0,0-1.19,1.17V9.324a.277.277,0,0,0,.282.323Z" transform="translate(-3363.84 -6352.273)" fill="#f8c200"/>
    <path id="Trazado_4" data-name="Trazado 4" d="M29.356,14.03H7.152a.31.31,0,0,0-.3.3v3.852a.31.31,0,0,0,.3.3H29.335a.294.294,0,0,0,.262-.444,9.639,9.639,0,0,0-.827-1.19.938.938,0,0,1,0-1.149,11.446,11.446,0,0,0,.827-1.19.309.309,0,0,0-.242-.484" transform="translate(-3363.85 -6343.286)" fill="#f8c200"/>
    <path id="Trazado_5" data-name="Trazado 5" d="M28,22.86H7.152a.31.31,0,0,0-.3.3v2.964a1.192,1.192,0,0,0,1.19,1.19h3.085a1.653,1.653,0,0,0,1.149-.484l.323-.323a.548.548,0,0,1,.786,0l.323.323a1.653,1.653,0,0,0,1.149.484h4.477a11.959,11.959,0,0,0,8.026-3.065,12.277,12.277,0,0,0,.887-.887.313.313,0,0,0-.242-.5" transform="translate(-3363.85 -6334.309)" fill="#f8c200"/>
  </g>
</svg>
