<svg id="Grupo_861" data-name="Grupo 861" xmlns="http://www.w3.org/2000/svg" width="42.548" height="42.548" viewBox="0 0 42.548 42.548">
  <g id="Grupo_688" data-name="Grupo 688" transform="translate(38.998 19.066)">
    <path id="Trazado_2168" data-name="Trazado 2168" d="M450.511,819.383l-1.341-1.341.867-.867-.867-.867,1.341-1.341,2.208,2.208Z" transform="translate(-449.17 -814.967)" fill="#f8c200"/>
  </g>
  <g id="Grupo_689" data-name="Grupo 689" transform="translate(23.826 23.827)">
    <path id="Trazado_2169" data-name="Trazado 2169" d="M418.521,839.833l-1.341-1.342,3.372-3.372,1.341,1.341Zm5.057-5.058-1.341-1.341,3.372-3.372,1.341,1.341Zm5.058-5.058-1.341-1.341,3.371-3.371,1.341,1.341Z" transform="translate(-417.18 -825.006)" fill="#f8c200"/>
  </g>
  <g id="Grupo_690" data-name="Grupo 690" transform="translate(19.066 38.998)">
    <path id="Trazado_2170" data-name="Trazado 2170" d="M409.35,860.545l-2.208-2.208L408.483,857l.867.867.867-.867,1.341,1.341Z" transform="translate(-407.142 -856.995)" fill="#f8c200"/>
  </g>
  <g id="Grupo_691" data-name="Grupo 691" transform="translate(3.894 23.826)">
    <path id="Trazado_2171" data-name="Trazado 2171" d="M388.637,839.832l-3.371-3.372,1.341-1.341,3.371,3.371Zm-5.057-5.058-3.372-3.372,1.342-1.341,3.372,3.372Zm-5.057-5.057-3.372-3.372,1.341-1.341,3.372,3.372Z" transform="translate(-375.151 -825.005)" fill="#f8c200"/>
  </g>
  <g id="Grupo_692" data-name="Grupo 692" transform="translate(0 19.066)">
    <path id="Trazado_2172" data-name="Trazado 2172" d="M369.15,819.383l-2.208-2.208,2.208-2.208,1.341,1.341-.867.867.867.867Z" transform="translate(-366.941 -814.967)" fill="#f8c200"/>
  </g>
  <g id="Grupo_693" data-name="Grupo 693" transform="translate(3.894 3.894)">
    <path id="Trazado_2173" data-name="Trazado 2173" d="M376.493,797.8l-1.341-1.341,3.372-3.371,1.341,1.341Zm5.058-5.057-1.342-1.341,3.372-3.372,1.341,1.341Zm5.057-5.057-1.341-1.341,3.372-3.372,1.341,1.341Z" transform="translate(-375.152 -782.977)" fill="#f8c200"/>
  </g>
  <g id="Grupo_694" data-name="Grupo 694" transform="translate(19.066 0)">
    <path id="Trazado_2174" data-name="Trazado 2174" d="M410.217,778.316l-.867-.867-.867.867-1.341-1.341,2.208-2.208,2.208,2.208Z" transform="translate(-407.142 -774.767)" fill="#f8c200"/>
  </g>
  <g id="Grupo_695" data-name="Grupo 695" transform="translate(23.827 3.894)">
    <path id="Trazado_2175" data-name="Trazado 2175" d="M430.667,797.8l-3.372-3.372,1.341-1.341,3.372,3.372Zm-5.057-5.057-3.372-3.372,1.341-1.341,3.372,3.372Zm-5.058-5.058-3.371-3.371,1.341-1.341,3.371,3.371Z" transform="translate(-417.181 -782.978)" fill="#f8c200"/>
  </g>
</svg>
