<svg id="Grupo_860" data-name="Grupo 860" xmlns="http://www.w3.org/2000/svg" width="42.926" height="42.925" viewBox="0 0 42.926 42.925">
  <g id="Rectángulo_2621" data-name="Rectángulo 2621" transform="translate(21.463) rotate(45)" fill="none" stroke="#f8c200" stroke-linecap="round" stroke-width="2">
    <rect width="30.353" height="30.353" stroke="none"/>
    <rect x="1" y="1" width="28.353" height="28.353" fill="none"/>
  </g>
  <g id="Grupo_701" data-name="Grupo 701" transform="translate(7.109 21.383) rotate(-45)">
    <circle id="Elipse_70" data-name="Elipse 70" cx="1.343" cy="1.343" r="1.343" transform="translate(0 0)" fill="#f8c200"/>
    <circle id="Elipse_70-2" data-name="Elipse 70" cx="1.343" cy="1.343" r="1.343" transform="translate(5.907 0)" fill="#f8c200"/>
    <circle id="Elipse_70-3" data-name="Elipse 70" cx="1.343" cy="1.343" r="1.343" transform="translate(11.814 0)" fill="#f8c200"/>
    <circle id="Elipse_70-4" data-name="Elipse 70" cx="1.343" cy="1.343" r="1.343" transform="translate(17.721 0)" fill="#f8c200"/>
    <circle id="Elipse_70-5" data-name="Elipse 70" cx="1.343" cy="1.343" r="1.343" transform="translate(0 5.907)" fill="#f8c200"/>
    <circle id="Elipse_70-6" data-name="Elipse 70" cx="1.343" cy="1.343" r="1.343" transform="translate(5.907 5.907)" fill="#f8c200"/>
    <circle id="Elipse_70-7" data-name="Elipse 70" cx="1.343" cy="1.343" r="1.343" transform="translate(11.814 5.907)" fill="#f8c200"/>
    <circle id="Elipse_70-8" data-name="Elipse 70" cx="1.343" cy="1.343" r="1.343" transform="translate(17.721 5.907)" fill="#f8c200"/>
    <circle id="Elipse_70-9" data-name="Elipse 70" cx="1.343" cy="1.343" r="1.343" transform="translate(0 11.814)" fill="#f8c200"/>
    <circle id="Elipse_70-10" data-name="Elipse 70" cx="1.343" cy="1.343" r="1.343" transform="translate(5.907 11.814)" fill="#f8c200"/>
    <circle id="Elipse_70-11" data-name="Elipse 70" cx="1.343" cy="1.343" r="1.343" transform="translate(11.814 11.814)" fill="#f8c200"/>
    <circle id="Elipse_70-12" data-name="Elipse 70" cx="1.343" cy="1.343" r="1.343" transform="translate(17.721 11.814)" fill="#f8c200"/>
    <circle id="Elipse_70-13" data-name="Elipse 70" cx="1.343" cy="1.343" r="1.343" transform="translate(0 17.721)" fill="#f8c200"/>
    <circle id="Elipse_70-14" data-name="Elipse 70" cx="1.343" cy="1.343" r="1.343" transform="translate(5.907 17.721)" fill="#f8c200"/>
    <circle id="Elipse_70-15" data-name="Elipse 70" cx="1.343" cy="1.343" r="1.343" transform="translate(11.814 17.721)" fill="#f8c200"/>
    <circle id="Elipse_70-16" data-name="Elipse 70" cx="1.343" cy="1.343" r="1.343" transform="translate(17.721 17.721)" fill="#f8c200"/>
  </g>
</svg>
