<?xml version="1.0" encoding="utf-8"?>
<!-- Generator: Adobe Illustrator 23.0.3, SVG Export Plug-In . SVG Version: 6.00 Build 0)  -->
<svg version="1.1" id="Grupo_86" xmlns="http://www.w3.org/2000/svg" xmlns:xlink="http://www.w3.org/1999/xlink" x="0px" y="0px"
	 viewBox="0 0 43.2 59.6" style="enable-background:new 0 0 43.2 59.6;" xml:space="preserve">
<style type="text/css">
	.st0{fill:#343434;}
	.st1{fill:#F8C200;}
</style>
<g id="Trazado_2084">
	<path class="st0" d="M21.8,58.9C18.9,55.3,0.5,32.4,0.5,21.6C0.5,10,10,0.5,21.6,0.5c11.6,0,21.1,9.5,21.1,21.1
		C42.7,32.4,24.7,55.3,21.8,58.9z"/>
	<path class="st1" d="M21.6,1L21.6,1C33,1,42.2,10.3,42.2,21.6c0,10.2-16.7,31.7-20.5,36.4C17.9,53.3,1,31.8,1,21.6
		C1,10.3,10.3,1,21.6,1 M21.6,0C9.7,0,0,9.7,0,21.6c0,11.9,21.8,38,21.8,38s21.5-26.1,21.5-38C43.2,9.7,33.6,0,21.6,0L21.6,0z"/>
</g>
<g id="Grupo_509" transform="translate(14.477 10.396)">
	<path id="Trazado_1" class="st1" d="M0.2,8.9h15.9c0.1,0,0.2-0.1,0.2-0.2c0-0.2,0-0.5,0-0.7c0-0.6-0.1-1.3-0.2-1.9
		C16.1,6,16,6,15.9,6H0.2C0.1,6,0,6,0,6.2v2.6C0,8.8,0.1,8.9,0.2,8.9"/>
	<path id="Trazado_2" class="st1" d="M0.2,20.8h15.7c0.1,0,0.2-0.1,0.2-0.1c0.2-0.6,0.2-1.3,0.2-1.9c0-0.2,0-0.5,0-0.7
		c0-0.1-0.1-0.2-0.2-0.2H0.2c-0.1,0-0.2,0.1-0.2,0.2v2.6C0,20.7,0.1,20.8,0.2,20.8L0.2,20.8"/>
	<path id="Trazado_3" class="st1" d="M14.1,3c0.1,0,0.2-0.1,0.2-0.2c0-0.1,0-0.1-0.1-0.1c-0.2-0.2-0.4-0.4-0.6-0.6
		c-1.5-1.3-3.4-2-5.3-2H0.8C0.4,0,0,0.3,0,0.8v2C0,2.9,0.1,3,0.2,3c0,0,0,0,0,0H14.1z"/>
	<path id="Trazado_4" class="st1" d="M15,11.9H0.2C0.1,11.9,0,12,0,12.1v2.6c0,0.1,0.1,0.2,0.2,0.2H15c0.1,0,0.2-0.1,0.2-0.2
		c0,0,0-0.1,0-0.1c-0.2-0.3-0.3-0.5-0.6-0.8c-0.2-0.2-0.2-0.5,0-0.8c0.2-0.3,0.4-0.5,0.6-0.8c0.1-0.1,0-0.2-0.1-0.3
		C15.1,11.9,15.1,11.9,15,11.9"/>
	<path id="Trazado_5" class="st1" d="M14.1,23.8H0.2C0.1,23.8,0,23.9,0,24v2c0,0.4,0.4,0.8,0.8,0.8h2.1c0.3,0,0.6-0.1,0.8-0.3
		l0.2-0.2c0.1-0.1,0.4-0.1,0.5,0c0,0,0,0,0,0l0.2,0.2c0.2,0.2,0.5,0.3,0.8,0.3h3c2,0,3.9-0.7,5.4-2c0.2-0.2,0.4-0.4,0.6-0.6
		c0.1-0.1,0.1-0.2,0-0.3C14.2,23.8,14.2,23.8,14.1,23.8"/>
</g>
</svg>
