<svg xmlns="http://www.w3.org/2000/svg" width="129" height="42.925" viewBox="0 0 129 42.925">
  <g id="mini_icons_hero" transform="translate(-656 -229.792)">
    <g id="Group_770" data-name="Group 770" transform="translate(656 229.792)">
      <g id="Group_688" data-name="Group 688" transform="translate(38.998 19.066)">
        <path id="Path_2168" data-name="Path 2168" d="M450.511,819.383l-1.341-1.341.867-.867-.867-.867,1.341-1.341,2.208,2.208Z" transform="translate(-449.17 -814.967)" fill="#f8c200"/>
      </g>
      <g id="Group_689" data-name="Group 689" transform="translate(23.826 23.827)">
        <path id="Path_2169" data-name="Path 2169" d="M418.521,839.833l-1.341-1.342,3.372-3.372,1.341,1.341Zm5.057-5.058-1.341-1.341,3.372-3.372,1.341,1.341Zm5.058-5.058-1.341-1.341,3.371-3.371,1.341,1.341Z" transform="translate(-417.18 -825.006)" fill="#f8c200"/>
      </g>
      <g id="Group_690" data-name="Group 690" transform="translate(19.066 38.998)">
        <path id="Path_2170" data-name="Path 2170" d="M409.35,860.545l-2.208-2.208L408.483,857l.867.867.867-.867,1.341,1.341Z" transform="translate(-407.142 -856.995)" fill="#f8c200"/>
      </g>
      <g id="Group_691" data-name="Group 691" transform="translate(3.894 23.826)">
        <path id="Path_2171" data-name="Path 2171" d="M388.637,839.832l-3.371-3.372,1.341-1.341,3.371,3.371Zm-5.057-5.058-3.372-3.372,1.342-1.341,3.372,3.372Zm-5.057-5.057-3.372-3.372,1.341-1.341,3.372,3.372Z" transform="translate(-375.151 -825.005)" fill="#f8c200"/>
      </g>
      <g id="Group_692" data-name="Group 692" transform="translate(0 19.066)">
        <path id="Path_2172" data-name="Path 2172" d="M369.15,819.383l-2.208-2.208,2.208-2.208,1.341,1.341-.867.867.867.867Z" transform="translate(-366.941 -814.967)" fill="#f8c200"/>
      </g>
      <g id="Group_693" data-name="Group 693" transform="translate(3.894 3.894)">
        <path id="Path_2173" data-name="Path 2173" d="M376.493,797.8l-1.341-1.341,3.372-3.371,1.341,1.341Zm5.058-5.057-1.342-1.341,3.372-3.372,1.341,1.341Zm5.057-5.057-1.341-1.341,3.372-3.372,1.341,1.341Z" transform="translate(-375.152 -782.977)" fill="#f8c200"/>
      </g>
      <g id="Group_694" data-name="Group 694" transform="translate(19.066 0)">
        <path id="Path_2174" data-name="Path 2174" d="M410.217,778.316l-.867-.867-.867.867-1.341-1.341,2.208-2.208,2.208,2.208Z" transform="translate(-407.142 -774.767)" fill="#f8c200"/>
      </g>
      <g id="Group_695" data-name="Group 695" transform="translate(23.827 3.894)">
        <path id="Path_2175" data-name="Path 2175" d="M430.667,797.8l-3.372-3.372,1.341-1.341,3.372,3.372Zm-5.057-5.057-3.372-3.372,1.341-1.341,3.372,3.372Zm-5.058-5.058-3.371-3.371,1.341-1.341,3.371,3.371Z" transform="translate(-417.181 -782.978)" fill="#f8c200"/>
      </g>
    </g>
    <g id="Group_771" data-name="Group 771" transform="translate(699.055 229.792)">
      <g id="Rectangle_2621" data-name="Rectangle 2621" transform="translate(21.463) rotate(45)" fill="none" stroke="#f8c200" stroke-linecap="round" stroke-width="2">
        <rect width="30.353" height="30.353" stroke="none"/>
        <rect x="1" y="1" width="28.353" height="28.353" fill="none"/>
      </g>
      <g id="Group_701" data-name="Group 701" transform="translate(7.109 21.383) rotate(-45)">
        <circle id="Ellipse_70" data-name="Ellipse 70" cx="1.343" cy="1.343" r="1.343" transform="translate(0 0)" fill="#f8c200"/>
        <circle id="Ellipse_70-2" data-name="Ellipse 70" cx="1.343" cy="1.343" r="1.343" transform="translate(5.907 0)" fill="#f8c200"/>
        <circle id="Ellipse_70-3" data-name="Ellipse 70" cx="1.343" cy="1.343" r="1.343" transform="translate(11.814 0)" fill="#f8c200"/>
        <circle id="Ellipse_70-4" data-name="Ellipse 70" cx="1.343" cy="1.343" r="1.343" transform="translate(17.721 0)" fill="#f8c200"/>
        <circle id="Ellipse_70-5" data-name="Ellipse 70" cx="1.343" cy="1.343" r="1.343" transform="translate(0 5.907)" fill="#f8c200"/>
        <circle id="Ellipse_70-6" data-name="Ellipse 70" cx="1.343" cy="1.343" r="1.343" transform="translate(5.907 5.907)" fill="#f8c200"/>
        <circle id="Ellipse_70-7" data-name="Ellipse 70" cx="1.343" cy="1.343" r="1.343" transform="translate(11.814 5.907)" fill="#f8c200"/>
        <circle id="Ellipse_70-8" data-name="Ellipse 70" cx="1.343" cy="1.343" r="1.343" transform="translate(17.721 5.907)" fill="#f8c200"/>
        <circle id="Ellipse_70-9" data-name="Ellipse 70" cx="1.343" cy="1.343" r="1.343" transform="translate(0 11.814)" fill="#f8c200"/>
        <circle id="Ellipse_70-10" data-name="Ellipse 70" cx="1.343" cy="1.343" r="1.343" transform="translate(5.907 11.814)" fill="#f8c200"/>
        <circle id="Ellipse_70-11" data-name="Ellipse 70" cx="1.343" cy="1.343" r="1.343" transform="translate(11.814 11.814)" fill="#f8c200"/>
        <circle id="Ellipse_70-12" data-name="Ellipse 70" cx="1.343" cy="1.343" r="1.343" transform="translate(17.721 11.814)" fill="#f8c200"/>
        <circle id="Ellipse_70-13" data-name="Ellipse 70" cx="1.343" cy="1.343" r="1.343" transform="translate(0 17.721)" fill="#f8c200"/>
        <circle id="Ellipse_70-14" data-name="Ellipse 70" cx="1.343" cy="1.343" r="1.343" transform="translate(5.907 17.721)" fill="#f8c200"/>
        <circle id="Ellipse_70-15" data-name="Ellipse 70" cx="1.343" cy="1.343" r="1.343" transform="translate(11.814 17.721)" fill="#f8c200"/>
        <circle id="Ellipse_70-16" data-name="Ellipse 70" cx="1.343" cy="1.343" r="1.343" transform="translate(17.721 17.721)" fill="#f8c200"/>
      </g>
    </g>
    <g id="Group_772" data-name="Group 772" transform="translate(742.074 229.792)">
      <g id="Rectangle_2557" data-name="Rectangle 2557" transform="translate(21.463) rotate(45)" fill="none" stroke="#f8c200" stroke-linecap="round" stroke-linejoin="round" stroke-width="2">
        <rect width="30.353" height="30.353" stroke="none"/>
        <rect x="1" y="1" width="28.353" height="28.353" fill="none"/>
      </g>
      <path id="Subtraction_15" data-name="Subtraction 15" d="M15.5,31h0l-3.45-3.45h6.9L15.5,31Zm6.9-6.9H8.6L5.162,20.664H25.84L22.4,24.1Zm6.889-6.889H1.712L0,15.5l1.738-1.738H29.264L31,15.5,29.29,17.213Zm-3.477-6.9H5.189l3.45-3.45H22.363l3.45,3.45Zm-6.9-6.9H12.089L15.5,0l3.412,3.412Z" transform="translate(6.079 6.019)" fill="#f8c200"/>
    </g>
  </g>
</svg>
